# xmcd CD database file
#
# Track frame offsets:
#	150
#	18915
#	37712
#	57700
#	78690
#	100640
#	119335
#	140595
#	162985
#	177432
#	199570
#	216572
#
# Disc length: 3181 seconds
#
# Revision: 1
# Processed by: cddbd v1.5.1PL0 Copyright (c) Steve Scherf et al.
# Submitted via: CDex 1.51
#
DISCID=a70c6b0c
DTITLE=Various Artist - Girl'sBOX
DYEAR=2005
DGENRE=Blues
TTITLE0=Movin'on
TTITLE1=GALAXY
TTITLE2=LolitA Strawberry in summer
TTITLE3=xoxoxo
TTITLE4=Diamond-kibounoshirushi-
TTITLE5=aishitene_motto
TTITLE6=kibounouta-Merry Christmas to you-
TTITLE7=LET ME LOVE YOU
TTITLE8="J"noGENERATION
TTITLE9=yourhythmix
TTITLE10=Rise&Set
TTITLE11=Perseus
EXTD=YEAR: 2005
EXTT0=
EXTT1=
EXTT2=
EXTT3=
EXTT4=
EXTT5=
EXTT6=
EXTT7=
EXTT8=
EXTT9=
EXTT10=
EXTT11=
PLAYORDER=
